<svg width="323" height="257" viewBox="0 0 323 257" fill="none" xmlns="http://www.w3.org/2000/svg">
<path d="M90.7034 47.7071C103.877 47.7071 114.557 37.0275 114.557 23.8535C114.557 10.6796 103.877 0 90.7034 0C77.5295 0 66.8499 10.6796 66.8499 23.8535C66.8499 37.0275 77.5295 47.7071 90.7034 47.7071Z" fill="#FF6584"/>
<path d="M229.993 30.8084H201.381V4.79724L229.993 30.8084Z" fill="#3F3D56"/>
<path d="M233.337 29.9568H89.3975V228.817H233.337V29.9568Z" fill="#E6E6E6"/>
<path d="M120.692 43.8998H103.758V79.5822H120.692V43.8998Z" fill="white"/>
<path d="M146.885 43.8998H129.951V79.5822H146.885V43.8998Z" fill="white"/>
<path d="M118.46 94.4748H101.526V130.157H118.46V94.4748Z" fill="white"/>
<path d="M146.885 94.4748H129.951V130.157H146.885V94.4748Z" fill="white"/>
<path d="M118.46 141.27H101.526V176.953H118.46V141.27Z" fill="white"/>
<path d="M146.247 140.633H129.313V176.315H146.247V140.633Z" fill="white"/>
<path d="M170.86 193.215H153.926V228.897H170.86V193.215Z" fill="#CCCCCC"/>
<path d="M196.445 140.633H179.51V176.315H196.445V140.633Z" fill="white"/>
<path d="M224.869 140.633H207.935V176.315H224.869V140.633Z" fill="white"/>
<path d="M197.082 94.097H180.148V129.779H197.082V94.097Z" fill="white"/>
<path d="M225.507 94.097H208.573V129.779H225.507V94.097Z" fill="white"/>
<path d="M197.082 43.8998H180.148V79.5822H197.082V43.8998Z" fill="white"/>
<path d="M225.507 43.8998H208.573V79.5822H225.507V43.8998Z" fill="white"/>
<path d="M233.337 75.9205H89.3975V81.3636H233.337V75.9205Z" fill="#3F3D56"/>
<path d="M233.337 118.256H89.3975V121.279H233.337V118.256Z" fill="#3F3D56"/>
<path d="M233.337 108.579H89.3975V111.603H233.337V108.579Z" fill="#3F3D56"/>
<path d="M103.61 179.339V155.148H100.586V179.339H103.61Z" fill="#3F3D56"/>
<path d="M120.544 179.339V155.148H117.52V179.339H120.544Z" fill="#3F3D56"/>
<path d="M137.478 179.339V155.148H134.454V179.339H137.478Z" fill="#3F3D56"/>
<path d="M154.412 179.339V155.148H151.388V179.339H154.412Z" fill="#3F3D56"/>
<path d="M171.346 179.339V155.148H168.322V179.339H171.346Z" fill="#3F3D56"/>
<path d="M188.28 179.339V155.148H185.256V179.339H188.28Z" fill="#3F3D56"/>
<path d="M205.214 179.339V155.148H202.19V179.339H205.214Z" fill="#3F3D56"/>
<path d="M222.148 179.339V155.148H219.124V179.339H222.148Z" fill="#3F3D56"/>
<path d="M103.912 133.375V109.184H100.888V133.375H103.912Z" fill="#3F3D56"/>
<path d="M120.846 133.375V109.184H117.822V133.375H120.846Z" fill="#3F3D56"/>
<path d="M137.78 133.375V109.184H134.756V133.375H137.78Z" fill="#3F3D56"/>
<path d="M154.714 133.375V109.184H151.69V133.375H154.714Z" fill="#3F3D56"/>
<path d="M171.648 133.375V109.184H168.624V133.375H171.648Z" fill="#3F3D56"/>
<path d="M188.582 133.375V109.184H185.558V133.375H188.582Z" fill="#3F3D56"/>
<path d="M205.516 133.375V109.184H202.492V133.375H205.516Z" fill="#3F3D56"/>
<path d="M222.45 133.375V109.184H219.427V133.375H222.45Z" fill="#3F3D56"/>
<path d="M103.912 79.5493V55.3578H100.888V79.5493H103.912Z" fill="#3F3D56"/>
<path d="M120.846 79.5493V55.3578H117.822V79.5493H120.846Z" fill="#3F3D56"/>
<path d="M137.78 79.5493V55.3578H134.756V79.5493H137.78Z" fill="#3F3D56"/>
<path d="M154.714 79.5493V55.3578H151.69V79.5493H154.714Z" fill="#3F3D56"/>
<path d="M171.648 79.5493V55.3578H168.624V79.5493H171.648Z" fill="#3F3D56"/>
<path d="M188.582 79.5493V55.3578H185.558V79.5493H188.582Z" fill="#3F3D56"/>
<path d="M205.516 79.5493V55.3578H202.492V79.5493H205.516Z" fill="#3F3D56"/>
<path d="M222.45 79.5493V55.3578H219.427V79.5493H222.45Z" fill="#3F3D56"/>
<path d="M233.337 63.8248H89.3975V66.8488H233.337V63.8248Z" fill="#3F3D56"/>
<path d="M233.337 54.1483H89.3975V57.1722H233.337V54.1483Z" fill="#3F3D56"/>
<path d="M233.337 128.537H89.3975V133.98H233.337V128.537Z" fill="#3F3D56"/>
<path d="M239.96 27.7193H82.7737V35.8303H239.96V27.7193Z" fill="#3F3D56"/>
<path d="M120.724 200.93V193.215H111.465V200.93H119.952H120.724Z" fill="white"/>
<path d="M119.952 207.103H111.465V214.819H120.724V207.103H119.952Z" fill="white"/>
<path d="M136.155 193.215H126.896V200.93H136.155V193.215Z" fill="white"/>
<path d="M136.155 207.103H126.896V214.819H136.155V207.103Z" fill="white"/>
<path d="M196.24 200.93V193.215H186.981V200.93H195.469H196.24Z" fill="white"/>
<path d="M195.469 207.103H186.981V214.819H196.24V207.103H195.469Z" fill="white"/>
<path d="M211.672 193.215H202.413V200.93H211.672V193.215Z" fill="white"/>
<path d="M211.672 207.103H202.413V214.819H211.672V207.103Z" fill="white"/>
<path d="M233.337 174.501H89.3975V179.944H233.337V174.501Z" fill="#3F3D56"/>
<path d="M233.337 164.824H89.3975V167.848H233.337V164.824Z" fill="#3F3D56"/>
<path d="M233.337 155.148H89.3975V158.171H233.337V155.148Z" fill="#3F3D56"/>
<path d="M132.974 226.225C132.974 226.057 132.972 225.889 132.967 225.723C132.838 221.264 128.415 220.055 126.044 222.166C125.296 221.516 124.338 221.158 123.348 221.158C122.357 221.158 121.399 221.516 120.651 222.166C118.27 220.088 113.935 221.212 113.792 225.619C113.787 225.786 113.784 225.953 113.784 226.122C113.791 227.048 113.847 227.974 113.954 228.895H132.806C132.909 228.009 132.965 227.117 132.974 226.225Z" fill="#5280E1"/>
<path d="M207.9 226.225C207.901 226.057 207.898 225.889 207.894 225.723C207.764 221.264 203.342 220.055 200.971 222.166C200.223 221.516 199.265 221.158 198.274 221.158C197.283 221.158 196.326 221.516 195.577 222.166C193.196 220.088 188.862 221.212 188.719 225.619C188.713 225.786 188.711 225.953 188.71 226.122C188.717 227.048 188.774 227.974 188.88 228.895H207.733C207.835 228.009 207.891 227.117 207.9 226.225Z" fill="#5280E1"/>
<path d="M311.294 229.197H308.378L309.35 172.243H310.322L311.294 229.197Z" fill="#E6E6E6"/>
<path d="M313.723 136.387L318.43 129.114C317.034 125.258 315.422 121.485 313.601 117.811L310.558 120.269L312.967 116.545C310.671 112.024 308.864 109.176 308.864 109.176C308.864 109.176 299.425 124.05 296.272 139.798L302.311 149.132L295.625 143.732C295.387 145.566 295.265 147.414 295.258 149.264C295.258 167.915 301.35 183.035 308.864 183.035C316.378 183.035 322.47 167.915 322.47 149.264C322.47 143.482 321.161 137.432 319.357 131.837L313.723 136.387Z" fill="#E6E6E6"/>
<path d="M301.028 149.536H238.827V195.335H238.864V204.454L247.983 195.335H301.028V149.536Z" fill="#5280E1"/>
<path d="M222.368 247.349H167.183V249.53H222.368V247.349Z" fill="#E6E6E6"/>
<path d="M323 247.349H267.517V249.53H323V247.349Z" fill="#E6E6E6"/>
<path d="M122.106 247.349H66.8499V249.53H122.106V247.349Z" fill="#E6E6E6"/>
<path d="M322.773 228.848H0V229.456H322.773V228.848Z" fill="#3F3D56"/>
<path d="M253.158 239.351L259.656 239.354L259.657 238.323L253.159 238.319L253.158 239.351Z" fill="#3F3D56"/>
<path d="M206.175 238.552L207.515 238.862L258.47 238.889L258.929 237.822C259.728 235.991 260.002 233.973 259.721 231.995C259.501 230.521 258.951 229.056 257.702 228.42L255.441 213.359L227.25 213.308L216.343 222.105C216.343 222.105 211.198 222.013 208.403 225.493C207.395 226.786 206.8 228.354 206.695 229.991L206.585 231.801L206.175 238.552Z" fill="#5280E1"/>
<path d="M217.366 244.592C220.841 244.592 223.658 241.775 223.658 238.3C223.658 234.825 220.841 232.008 217.366 232.008C213.891 232.008 211.074 234.825 211.074 238.3C211.074 241.775 213.891 244.592 217.366 244.592Z" fill="#3F3D56"/>
<path d="M217.366 241.612C219.195 241.612 220.678 240.129 220.678 238.3C220.678 236.471 219.195 234.989 217.366 234.989C215.537 234.989 214.055 236.471 214.055 238.3C214.055 240.129 215.537 241.612 217.366 241.612Z" fill="#CCCCCC"/>
<path d="M248.414 244.609C251.889 244.609 254.706 241.792 254.706 238.317C254.706 234.842 251.889 232.025 248.414 232.025C244.939 232.025 242.122 234.842 242.122 238.317C242.122 241.792 244.939 244.609 248.414 244.609Z" fill="#3F3D56"/>
<path d="M248.414 241.628C250.243 241.628 251.725 240.146 251.725 238.317C251.725 236.488 250.243 235.005 248.414 235.005C246.585 235.005 245.102 236.488 245.102 238.317C245.102 240.146 246.585 241.628 248.414 241.628Z" fill="#CCCCCC"/>
<path d="M220.677 221.077L235.898 221.084H237.756L240.893 221.086V220.857L240.895 218.099L240.897 215.001H238.81L236.952 214.999L233.661 214.997H231.803L228.003 214.995L220.677 221.077Z" fill="white"/>
<path d="M243.369 221.088L251.414 221.092L251.416 219.514V216.756L251.418 215.008H250.24L248.382 215.006L243.372 215.003L243.369 221.088Z" fill="white"/>
<path d="M239.857 227.586L240.888 227.587L240.889 225.627L239.858 225.626L239.857 227.586Z" fill="#3F3D56"/>
<path d="M224.802 223.865L224.802 222.833L222.843 222.832L222.842 223.864L224.802 223.865Z" fill="#3F3D56"/>
<path d="M224.079 223.285L223.965 223.285C223.394 223.285 222.845 223.058 222.441 222.653C222.037 222.249 221.81 221.7 221.811 221.128C221.811 220.557 222.038 220.008 222.443 219.604C222.847 219.2 223.396 218.973 223.968 218.974L224.081 218.974L224.079 223.285Z" fill="#3F3D56"/>
<path d="M206.584 231.801C207.365 231.886 208.149 231.693 208.801 231.256C209.453 230.819 209.929 230.166 210.146 229.412C210.364 228.658 210.308 227.851 209.989 227.134C209.67 226.418 209.109 225.836 208.403 225.493C207.395 226.787 206.8 228.354 206.695 229.991L206.584 231.801Z" fill="#3F3D56"/>
<path d="M236.952 214.999L240.893 220.857L240.895 218.099L238.81 215.001L236.952 214.999Z" fill="#F2F2F2"/>
<path d="M248.382 215.005L251.415 219.514V216.756L250.24 215.008L248.382 215.005Z" fill="#F2F2F2"/>
<path d="M231.803 214.997L235.898 221.084H237.756L233.661 214.997H231.803Z" fill="#F2F2F2"/>
<path d="M282.969 36.049L282.927 36.0719C282.472 36.3203 281.963 36.4513 281.446 36.4531C280.928 36.4549 280.418 36.3275 279.963 36.0823C279.936 36.0681 279.91 36.0541 279.884 36.0403C279.428 35.797 278.919 35.6706 278.403 35.6724C277.886 35.6741 277.378 35.8041 276.924 36.0505L276.884 36.0719C276.43 36.3203 275.921 36.4513 275.404 36.4531C274.886 36.4549 274.376 36.3275 273.92 36.0823C273.893 36.0676 273.866 36.0531 273.839 36.0387C273.389 35.7965 272.885 35.6693 272.374 35.6684C271.862 35.6675 271.359 35.7929 270.907 36.0335C269.529 36.776 267.665 38.0454 267.673 39.479C267.673 39.5357 267.677 39.5923 267.683 39.6487C267.843 41.1375 272.699 41.5168 275.367 40.8152C277.355 41.2689 279.42 41.2689 281.409 40.8152C284.065 41.5281 289.02 41.1196 289.164 39.6138C289.17 39.5573 289.172 39.5007 289.172 39.444C289.164 38.0096 287.284 36.7535 285.896 36.0215C285.444 35.7848 284.94 35.6634 284.429 35.6682C283.918 35.673 283.417 35.8038 282.969 36.049Z" fill="#E6E6E6"/>
<path d="M48.7008 38.793L48.6587 38.8158C48.2046 39.0642 47.6956 39.1952 47.1781 39.1971C46.6605 39.1989 46.1506 39.0714 45.6947 38.8262C45.6685 38.8121 45.6423 38.7981 45.6164 38.7843C45.1605 38.541 44.6515 38.4145 44.1348 38.4163C43.6181 38.4181 43.1099 38.548 42.6557 38.7945L42.6165 38.8158C42.1624 39.0642 41.6535 39.1952 41.1359 39.1971C40.6183 39.1989 40.1084 39.0714 39.6526 38.8262C39.6253 38.8115 39.5982 38.797 39.5712 38.7827C39.1207 38.5405 38.6174 38.4133 38.106 38.4124C37.5946 38.4115 37.0908 38.5369 36.6395 38.7775C35.2609 39.5199 33.3971 40.7893 33.4053 42.2229C33.4056 42.2796 33.4088 42.3363 33.4149 42.3926C33.5752 43.8814 38.4312 44.2608 41.0987 43.5591C43.0872 44.0129 45.1524 44.0129 47.1409 43.5591C49.7971 44.272 54.7518 43.8636 54.8966 42.3577C54.9021 42.3013 54.9046 42.2446 54.9043 42.1879C54.8961 40.7536 53.0159 39.4975 51.6286 38.7655C51.176 38.5287 50.672 38.4073 50.1612 38.4121C49.6505 38.4169 49.1488 38.5477 48.7008 38.793Z" fill="#E6E6E6"/>
<path d="M40.044 250.681H33.5457V251.713H40.044V250.681Z" fill="#3F3D56"/>
<path d="M87.0278 250.912L85.687 251.222L34.732 251.25L34.2738 250.182C33.4746 248.351 33.2003 246.333 33.4815 244.355C33.701 242.881 34.2509 241.416 35.5 240.78L37.7612 225.719L65.952 225.668L76.8589 234.466C76.8589 234.466 82.0039 234.373 84.799 237.853C85.8073 239.147 86.4026 240.714 86.5074 242.351L86.6178 244.161L87.0278 250.912Z" fill="#5280E1"/>
<path d="M75.836 256.952C79.311 256.952 82.128 254.135 82.128 250.66C82.128 247.185 79.311 244.368 75.836 244.368C72.361 244.368 69.5439 247.185 69.5439 250.66C69.5439 254.135 72.361 256.952 75.836 256.952Z" fill="#3F3D56"/>
<path d="M75.8362 253.972C77.6652 253.972 79.1478 252.489 79.1478 250.66C79.1478 248.831 77.6652 247.349 75.8362 247.349C74.0073 247.349 72.5247 248.831 72.5247 250.66C72.5247 252.489 74.0073 253.972 75.8362 253.972Z" fill="#CCCCCC"/>
<path d="M44.7886 256.969C48.2636 256.969 51.0806 254.152 51.0806 250.677C51.0806 247.202 48.2636 244.385 44.7886 244.385C41.3136 244.385 38.4966 247.202 38.4966 250.677C38.4966 254.152 41.3136 256.969 44.7886 256.969Z" fill="#3F3D56"/>
<path d="M44.7886 253.988C46.6176 253.988 48.1002 252.506 48.1002 250.677C48.1002 248.848 46.6176 247.365 44.7886 247.365C42.9597 247.365 41.4771 248.848 41.4771 250.677C41.4771 252.506 42.9597 253.988 44.7886 253.988Z" fill="#CCCCCC"/>
<path d="M72.5255 233.437L57.3046 233.444H55.4467L52.3098 233.446V233.217L52.3076 230.459L52.3054 227.361H54.3924L56.2504 227.359L59.5414 227.357H61.3994L65.199 227.355L72.5255 233.437Z" fill="white"/>
<path d="M49.8332 233.448L41.789 233.453L41.7868 231.874V229.116L41.7847 227.368H42.9625L44.8205 227.366L49.831 227.364L49.8332 233.448Z" fill="white"/>
<path d="M53.3437 237.985H52.3123V239.945H53.3437V237.985Z" fill="#3F3D56"/>
<path d="M70.3616 236.223L70.3611 235.191L68.4013 235.192L68.4018 236.224L70.3616 236.223Z" fill="#3F3D56"/>
<path d="M69.1223 231.333H69.2358C69.5189 231.333 69.7992 231.389 70.0608 231.497C70.3223 231.606 70.56 231.765 70.7602 231.965C70.9603 232.165 71.1191 232.403 71.2275 232.664C71.3358 232.926 71.3916 233.206 71.3916 233.489C71.3916 234.061 71.1644 234.609 70.7602 235.014C70.3559 235.418 69.8075 235.645 69.2358 235.645H69.1223V231.333H69.1223Z" fill="#3F3D56"/>
<path d="M86.6177 244.161C85.8377 244.246 85.0527 244.053 84.4011 243.616C83.7495 243.179 83.2731 242.526 83.0557 241.772C82.8383 241.018 82.894 240.211 83.2129 239.495C83.5318 238.778 84.0934 238.196 84.7989 237.853C85.8072 239.147 86.4025 240.714 86.5074 242.351L86.6177 244.161Z" fill="#3F3D56"/>
<path d="M56.2504 227.359L52.3098 233.217L52.3076 230.459L54.3924 227.361L56.2504 227.359Z" fill="#F2F2F2"/>
<path d="M44.8205 227.366L41.7869 231.874V229.116L42.9625 227.368L44.8205 227.366Z" fill="#F2F2F2"/>
<path d="M61.3993 227.357L57.3045 233.444H55.4465L59.5413 227.357H61.3993Z" fill="#F2F2F2"/>
<path d="M267.748 182.197L259.805 171.985L264.424 168.392L268.185 173.227L280.89 159.816L285.139 163.841L267.748 182.197Z" fill="white"/>
<path d="M2.30469 161.125H64.5057V206.924H64.4679V216.042L55.3495 206.924H2.30469V161.125Z" fill="#5280E1"/>
<path d="M31.6423 194.876L23.6992 184.664L28.3186 181.071L32.0793 185.906L44.7842 172.495L49.0327 176.52L31.6423 194.876Z" fill="white"/>
</svg>
