<svg width="245" height="58" viewBox="0 0 245 58" fill="none" xmlns="http://www.w3.org/2000/svg">
<g id="Group 329">
<g id="Group 316">
<path id="Vector" d="M12.2423 14.4286L7.19321 9.47668C3.9544 13.2944 1.73836 17.923 0.765625 22.902L12.2423 14.4286Z" fill="#5280E1"/>
<path id="Vector_2" d="M32.135 0.215498C30.999 0.0758929 29.8559 0.0040648 28.7115 0.000400781C21.1209 -0.0398394 13.8235 2.95159 8.4165 8.31998L13.7571 13.4254L32.135 0.215498Z" fill="#5280E1"/>
<path id="Vector_3" d="M41.9856 43.6805L37.5614 39.3424C35.4345 40.9621 32.8927 41.8954 30.2552 42.025C27.6177 42.1547 25.0019 41.4749 22.7363 40.0709C20.7864 38.8675 19.1719 37.1604 18.0509 35.1169C16.9299 33.0734 16.3408 30.7636 16.3414 28.4136C16.3467 25.6904 17.1518 23.0332 18.65 20.7947L13.5501 15.7946L0.124681 25.7074L0.160879 25.3244C0.160879 25.4535 0.132725 25.5784 0.120659 25.7074C0.0455823 26.5762 0.00536266 27.4588 0 28.3553C0.00157823 34.4604 1.84452 40.4126 5.27158 45.3812C8.69864 50.3497 13.5388 54.0868 19.1165 56.0706L42.8463 44.5382L41.9856 43.6805Z" fill="#5280E1"/>
<path id="Vector_4" d="M21.4233 56.7226C26.097 57.951 30.9962 57.9593 35.6738 56.7469C40.3514 55.5345 44.6586 53.1399 48.2023 49.7817L44.1316 45.8042L21.4233 56.7226Z" fill="#5280E1"/>
<path id="Vector_5" d="M49.4311 48.1733C51.433 46.0683 53.0836 43.6699 54.3225 41.0658L45.9062 44.9174L49.4311 48.1733Z" fill="#5280E1"/>
<path id="Vector_6" d="M22.6447 9.80326L15.3022 15.1246L19.9824 19.6273C21.4605 18.0715 23.2823 16.8963 25.2966 16.1992C27.311 15.5021 29.4599 15.3031 31.5651 15.6189C33.6702 15.9346 35.6709 16.756 37.4013 18.0148C39.1316 19.2736 40.5417 20.9336 41.5145 22.857L56.6183 22.902C56.5941 22.7874 56.57 22.6687 56.5418 22.55C55.3372 17.2371 52.6828 12.3772 48.8834 8.52811C45.084 4.67905 40.2936 1.99692 35.0621 0.789673L24.0947 8.74308L22.6447 9.80326Z" fill="#5280E1"/>
<path id="Vector_7" d="M39.0215 37.9433L43.972 42.6048L44.852 43.435L55.5475 38.4455C55.9646 37.3146 56.3076 36.1579 56.5742 34.9829C56.5742 34.9181 56.6028 34.8533 56.6191 34.7925L41.3358 34.748C40.7294 35.9221 39.9493 36.9992 39.0215 37.9433Z" fill="#5280E1"/>
</g>
<g id="Group 328">
<path id="Vector_8" d="M74.5562 28.9416C74.5562 18.2273 82.4121 10.0088 93.2453 10.0088C96.3104 9.96195 99.336 10.7131 102.032 12.1903C104.729 13.6675 107.006 15.8212 108.645 18.4452L101.566 22.6143C99.9701 19.8021 96.8888 18.1359 93.2384 18.1359C86.8745 18.1359 82.7661 22.4525 82.7661 28.9557C82.7661 35.4588 86.8745 39.7754 93.2384 39.7754C96.8818 39.7754 100.019 38.1092 101.566 35.3041L108.645 39.459C107.015 42.0916 104.74 44.2521 102.041 45.7305C99.3427 47.2088 96.3125 47.9546 93.2453 47.8955C82.4121 47.8744 74.5562 39.6559 74.5562 28.9416Z" fill="#222222"/>
<path id="Vector_9" d="M137.49 21.5395V47.1779H130.178V44.7665C128.569 46.7206 126.175 47.8985 122.925 47.8985C116.536 47.8985 111.268 42.0017 111.268 34.3656C111.268 26.7296 116.542 20.8328 122.925 20.8328C126.189 20.8328 128.582 22.0107 130.178 23.9579V21.5395H137.49ZM130.178 34.3587C130.178 30.513 127.738 28.1224 124.375 28.1224C121.013 28.1224 118.567 30.5337 118.567 34.3587C118.567 38.1837 121.006 40.5951 124.375 40.5951C127.745 40.5951 130.178 38.2391 130.178 34.3587Z" fill="#222222"/>
<path id="Vector_10" d="M170.267 34.3886C170.267 41.998 164.994 47.8987 158.613 47.8987C155.35 47.8987 152.957 46.7227 151.362 44.772V47.1793H144.045V11.3599H151.362V23.9984C152.97 22.0545 155.363 20.8785 158.613 20.8785C165 20.8785 170.267 26.7654 170.267 34.3886ZM162.957 34.3886C162.957 30.5494 160.518 28.1628 157.149 28.1628C153.781 28.1628 151.349 30.5701 151.349 34.3886C151.349 38.2071 153.788 40.6145 157.149 40.6145C160.511 40.6145 162.957 38.2625 162.957 34.3886Z" fill="#222222"/>
<path id="Vector_11" d="M199.111 22.1863L189.679 47.8988H181.011L171.578 22.1863H180.046L185.321 38.4824L190.623 22.1863H199.111Z" fill="#222222"/>
<path id="Vector_12" d="M213.18 41.0247C214.074 41.0519 214.965 40.8932 215.797 40.5584C216.629 40.2236 217.385 39.7197 218.019 39.0775L224.072 42.6184C221.598 46.083 217.869 47.8985 213.077 47.8985C204.455 47.8985 199.111 42.0017 199.111 34.3656C199.111 26.7296 204.564 20.8328 212.525 20.8328C219.887 20.8328 225.333 26.6256 225.333 34.3656C225.337 35.3993 225.234 36.4305 225.026 37.4422H207.127C208.088 40.11 210.405 41.0247 213.18 41.0247ZM217.815 31.6979C217.533 30.4927 216.843 29.4267 215.866 28.6868C214.889 27.9469 213.687 27.5802 212.471 27.6512C209.601 27.6512 207.699 29.0855 206.977 31.6979H217.815Z" fill="#222222"/>
<path id="Vector_13" d="M245 20.8328V29.8571C241.745 29.3262 237.13 30.6533 237.13 35.9044V47.8985H229.267V21.3564H237.13V26.0838C238.179 22.5329 241.675 20.8328 245 20.8328Z" fill="#222222"/>
</g>
</g>
</svg>
