<svg width="200" height="258" viewBox="0 0 200 258" fill="none" xmlns="http://www.w3.org/2000/svg">
<path d="M78.526 25.9738C86.7379 25.9738 93.3949 20.7814 93.3949 14.3763C93.3949 7.97114 86.7379 2.77875 78.526 2.77875C70.3142 2.77875 63.6572 7.97114 63.6572 14.3763C63.6572 20.7814 70.3142 25.9738 78.526 25.9738Z" fill="#3F3D56"/>
<path d="M108.264 75.0393C120.089 75.0393 129.675 65.4531 129.675 53.6279C129.675 41.8028 120.089 32.2166 108.264 32.2166C96.4385 32.2166 86.8523 41.8028 86.8523 53.6279C86.8523 65.4531 96.4385 75.0393 108.264 75.0393Z" fill="#3F3D56"/>
<path d="M176.211 248.856C179.167 248.856 181.562 246.46 181.562 243.505C181.562 240.55 179.167 238.154 176.211 238.154C173.256 238.154 170.86 240.55 170.86 243.505C170.86 246.46 173.256 248.856 176.211 248.856Z" fill="#3F3D56"/>
<path d="M148.261 248.856C151.216 248.856 153.612 246.46 153.612 243.505C153.612 240.55 151.216 238.154 148.261 238.154C145.306 238.154 142.91 240.55 142.91 243.505C142.91 246.46 145.306 248.856 148.261 248.856Z" fill="#3F3D56"/>
<path d="M156.587 114.445H154.208V180.167H156.587V114.445Z" fill="#3F3D56"/>
<path d="M169.373 114.445H166.993V180.167H169.373V114.445Z" fill="#3F3D56"/>
<path d="M154.789 116.228L154.193 114.445C154.193 114.445 160.735 106.714 169.954 112.946L169.358 115.625H166.978C166.978 115.625 163.115 112.384 156.572 116.086L154.789 116.228Z" fill="#3F3D56"/>
<path d="M114.806 105.077H93.3948V132.435H114.806V105.077Z" fill="#FBBEBE"/>
<path d="M129.675 97.3426H123.132V110.428H129.675V97.3426Z" fill="#FBBEBE"/>
<path d="M96.2201 238.154L93.5446 246.184C93.5446 246.184 92.353 252.131 96.2201 252.427C100.087 252.723 106.337 251.535 106.337 251.535C106.337 251.535 107.229 248.86 106.337 246.48C105.446 244.101 102.77 237.558 102.77 237.558L96.2201 238.154Z" fill="#3C354C"/>
<path d="M116.44 238.45C116.44 238.45 112.277 248.86 115.548 250.644C118.819 252.427 123.282 250.94 126.85 252.427C130.417 253.915 140.231 250.348 140.231 250.348C140.231 250.348 141.422 247.076 134.88 246.184C134.88 246.184 127.76 240.83 127.76 239.642C127.76 238.454 123.597 238.45 123.597 238.45H116.44Z" fill="#3C354C"/>
<path d="M115.548 119.8C115.548 119.8 91.1651 124.854 88.1936 123.367C85.2221 121.879 82.2468 143.602 82.2468 143.602C82.2468 143.602 81.0552 156.687 85.2183 174.231C89.3814 191.775 85.2183 200.401 85.2183 200.401C85.2183 200.401 85.8141 217.054 90.277 224.788C94.7399 232.522 94.7362 239.657 94.7362 239.657C94.7362 239.657 103.355 240.549 103.658 238.465C103.658 238.465 100.087 230.139 100.683 222.409C101.279 214.678 98.8993 199.806 98.8993 199.806C98.8993 199.806 102.766 181.07 102.171 173.95C101.575 166.83 104.254 151.647 105.738 154.322C107.222 156.998 111.093 170.083 111.093 172.762C111.093 175.441 112.591 193.278 113.472 194.47C114.353 195.661 114.064 199.229 113.768 201.012C113.472 202.796 113.472 216.177 114.956 223.315C116.44 230.454 115.256 238.48 115.552 239.672C115.848 240.863 124.474 239.968 124.77 237.884C124.77 237.884 125.961 225.099 126.557 223.315C127.153 221.532 127.434 198.899 127.434 198.899C127.434 198.899 128.026 181.354 128.622 179.571C129.218 177.787 130.121 139.423 126.242 134.979C122.364 130.535 123.863 119.219 123.863 119.219L115.548 119.8Z" fill="#3F3D56"/>
<path d="M95.5045 67.9947C94.4028 70.0706 93.2936 72.1653 92.6042 74.4173C91.9147 76.6694 91.6749 79.1088 92.3231 81.3721C92.7869 82.7858 93.4318 84.1335 94.2417 85.3816C94.8858 86.5744 95.7028 87.6654 96.6661 88.6192C98.9144 90.6726 102.182 91.0848 105.217 91.4071C105.738 91.494 106.27 91.4851 106.787 91.3808C107.202 91.2603 107.586 91.0505 107.911 90.7663C109.242 89.6421 109.845 87.9259 110.332 86.2697C111.491 82.3307 112.32 78.3024 112.813 74.2262C112.927 73.5817 112.927 72.9222 112.813 72.2777C112.55 71.1535 111.651 70.2804 110.999 69.3137C110.218 68.1584 109.772 66.8097 109.71 65.4166C109.684 64.7384 109.71 63.9889 109.283 63.4718C108.999 63.1903 108.654 62.9776 108.275 62.8498C106.502 62.1003 104.734 61.3509 102.958 60.6314C101.886 60.1893 99.9599 59.0127 98.8357 59.882C97.8727 60.6314 98.3374 62.3701 97.9252 63.4119C97.2919 64.9932 96.2989 66.4958 95.5045 67.9947Z" fill="#FBBEBE"/>
<path opacity="0.1" d="M95.5045 67.9947C94.4028 70.0706 93.2936 72.1653 92.6042 74.4173C91.9147 76.6694 91.6749 79.1088 92.3231 81.3721C92.7869 82.7858 93.4318 84.1335 94.2417 85.3816C94.8858 86.5744 95.7028 87.6654 96.6661 88.6192C98.9144 90.6726 102.182 91.0848 105.217 91.4071C105.738 91.494 106.27 91.4851 106.787 91.3808C107.202 91.2603 107.586 91.0505 107.911 90.7663C109.242 89.6421 109.845 87.9259 110.332 86.2697C111.491 82.3307 112.32 78.3024 112.813 74.2262C112.927 73.5817 112.927 72.9222 112.813 72.2777C112.55 71.1535 111.651 70.2804 110.999 69.3137C110.218 68.1584 109.772 66.8097 109.71 65.4166C109.684 64.7384 109.71 63.9889 109.283 63.4718C108.999 63.1903 108.654 62.9776 108.275 62.8498C106.502 62.1003 104.734 61.3509 102.958 60.6314C101.886 60.1893 99.9599 59.0127 98.8357 59.882C97.8727 60.6314 98.3374 62.3701 97.9252 63.4119C97.2919 64.9932 96.2989 66.4958 95.5045 67.9947Z" fill="black"/>
<path d="M107.222 68.6505C112.971 68.6505 117.632 63.9899 117.632 58.2408C117.632 52.4917 112.971 47.8311 107.222 47.8311C101.473 47.8311 96.8123 52.4917 96.8123 58.2408C96.8123 63.9899 101.473 68.6505 107.222 68.6505Z" fill="#FBBEBE"/>
<path d="M110.875 84.4936C108.904 85.2018 106.87 85.8126 104.775 85.8875C103.206 85.9032 101.64 85.736 100.11 85.3891C96.9476 84.7602 93.8421 83.8742 90.8242 82.7399C90.1797 84.0102 90.0073 85.4603 89.9511 86.8842C89.79 91.1898 90.6481 95.4616 90.9778 99.7596C91.3938 105.223 90.9778 110.806 92.383 116.097C92.4642 115.198 92.8141 114.344 93.3873 113.647C93.865 113.132 94.4359 112.712 95.0698 112.41C97.9057 110.944 101.172 110.538 104.28 111.263C106.083 111.691 107.998 112.489 109.706 111.773C110.725 111.342 111.464 110.435 112.03 109.484C112.99 107.766 113.675 105.909 114.06 103.979C115.185 99.0176 115.335 93.8877 115.469 88.7991C115.507 87.4388 116.091 83.3956 114.964 82.3989C114.173 81.7057 113.941 82.6949 113.371 83.212C112.63 83.7969 111.782 84.2322 110.875 84.4936Z" fill="#F2F2F2"/>
<path d="M96.2238 66.6232C95.5306 66.0798 94.5039 66.2484 93.7394 66.7093C92.975 67.1702 92.3567 67.8073 91.5811 68.2269C89.4302 69.3923 86.5411 68.538 84.4989 69.8944C82.5803 71.1722 82.2506 73.8027 82.1007 76.1035C81.726 81.9491 81.4037 87.8359 79.9985 93.5242C79.6238 95.023 79.1741 96.5594 79.3165 98.1032C79.4287 98.9852 79.6372 99.8523 79.9386 100.689L81.7822 106.448C82.6365 109.124 83.5021 111.84 83.5921 114.647C83.682 117.454 83.0225 120.122 82.3667 122.801C81.0707 128.079 80.227 133.458 79.8449 138.88C79.7287 140.675 79.68 142.549 80.407 144.194C81.1564 145.914 82.6778 147.191 84.2815 148.162C85.8853 149.132 87.6278 149.882 89.1979 150.912C92.3492 152.984 94.8786 156.248 98.5658 157.099C100.256 157.474 102.024 157.324 103.726 156.994C103.726 156.994 102.763 113.257 100.083 107.01C97.4042 100.764 95.0285 73.7053 95.0285 72.8135C95.0285 71.9217 96.2238 66.6232 96.2238 66.6232Z" fill="#5280E1"/>
<path d="M110.695 68.0546C110.695 68.0546 124.766 68.0546 126.85 75.489C128.933 82.9235 120.903 95.1168 120.903 95.1168C120.903 95.1168 124.174 119.204 125.658 121.583C127.142 123.963 126.554 128.703 126.554 128.703C127.631 131.966 127.835 135.454 127.146 138.82C125.958 144.171 121.495 153.689 121.495 153.689C121.495 153.689 115.548 153.689 114.06 157.256C112.573 160.824 112.277 141.792 112.277 141.792C112.277 141.792 106.926 106.999 107.222 104.919C107.518 102.84 109.005 85.5877 109.601 80.8288C110.197 76.0699 111.494 69.8383 110.695 68.0546Z" fill="#5280E1"/>
<path d="M121.495 72.8135C121.495 72.8135 128.337 74.8932 128.337 77.2727C128.337 79.6521 130.432 92.4375 130.432 96.6007C130.432 100.764 129.54 101.36 130.432 102.847C131.324 104.335 120.918 103.739 120.918 103.739L119.025 86.7905L121.495 72.8135Z" fill="#5280E1"/>
<path d="M81.0516 94.2249C81.0516 94.2249 94.4366 95.1167 96.816 93.3293C99.1955 91.5419 109.305 95.7088 110.197 98.0883C111.089 100.468 95.9205 100.764 93.5447 100.764C91.169 100.764 79.8638 104.335 79.8638 104.335L81.0516 94.2249Z" fill="#A0616A"/>
<path d="M53.4985 232.747C53.4985 232.747 47.2594 248.485 50.5008 250.359C53.7421 252.232 87.9201 250.898 87.9201 250.898C87.9201 250.898 93.6121 247.376 87.107 244.933C87.107 244.933 81.6811 244.663 78.1587 242.493C74.6364 240.324 70.5632 236.258 70.5632 236.258C70.5632 236.258 70.2934 230.293 68.1237 231.649C67.4748 232.077 66.9225 232.635 66.5023 233.289C66.0822 233.943 65.8036 234.677 65.6843 235.445L53.4985 232.747Z" fill="#3F3D56"/>
<path opacity="0.1" d="M53.4985 232.747C53.4985 232.747 47.2594 248.485 50.5008 250.359C53.7421 252.232 87.9201 250.898 87.9201 250.898C87.9201 250.898 93.6121 247.376 87.107 244.933C87.107 244.933 81.6811 244.663 78.1587 242.493C74.6364 240.324 70.5632 236.258 70.5632 236.258C70.5632 236.258 70.2934 230.293 68.1237 231.649C67.4748 232.077 66.9225 232.635 66.5023 233.289C66.0822 233.943 65.8036 234.677 65.6843 235.445L53.4985 232.747Z" fill="black"/>
<path d="M43.872 237.558C43.872 237.558 37.0334 254.795 40.6007 256.886C44.168 258.977 81.6398 257.482 81.6398 257.482C81.6398 257.482 87.8864 253.619 80.748 250.94C80.748 250.94 74.8012 250.644 70.9341 248.264C67.067 245.885 62.6079 241.414 62.6079 241.414C62.6079 241.414 62.3118 234.872 59.9324 236.359C59.2203 236.828 58.6144 237.44 58.1535 238.157C57.6927 238.874 57.3873 239.68 57.2569 240.522L43.872 237.558Z" fill="#3F3D56"/>
<path d="M78.9719 128.126L74.8088 165.598C74.8088 165.598 73.3099 183.442 68.862 187.305C68.862 187.305 68.862 192.956 67.3631 194.739L65.2797 218.234C65.2797 218.234 68.2549 226.853 67.9589 228.352C67.6629 229.85 69.1468 234.594 68.8507 235.19C68.5547 235.786 54.574 235.19 54.574 235.19L57.5492 187.312L66.7673 120.703L78.9719 128.126Z" fill="#3C354C"/>
<path opacity="0.1" d="M78.9719 128.126L74.8088 165.598C74.8088 165.598 73.3099 183.442 68.862 187.305C68.862 187.305 68.862 192.956 67.3631 194.739L65.2797 218.234C65.2797 218.234 68.2549 226.853 67.9589 228.352C67.6629 229.85 69.1468 234.594 68.8507 235.19C68.5547 235.786 54.574 235.19 54.574 235.19L57.5492 187.312L66.7673 120.703L78.9719 128.126Z" fill="black"/>
<path d="M71.5375 126.934C71.5375 126.934 68.2662 157.564 66.7785 164.106C65.8433 168.415 65.2469 172.79 64.9949 177.191C64.9949 177.191 64.6988 186.709 62.0196 189.385C61.2378 190.159 60.6235 191.086 60.2148 192.108C59.8062 193.129 59.6118 194.224 59.6439 195.324C59.6439 195.324 56.9647 225.358 58.4523 228.929C59.9399 232.5 61.4276 235.471 59.9512 237.847C58.4748 240.223 42.1071 240.226 42.1071 238.443C42.1071 236.659 42.1071 235.172 41.2153 234.28C40.3234 233.388 41.2153 227.737 41.2153 227.737C41.2153 227.737 37.6479 201.271 40.9192 193.54C44.1905 185.81 45.6781 164.687 45.6781 164.687C45.6781 164.687 43.2987 140.6 40.3234 136.733C37.3482 132.866 40.9192 119.189 40.9192 119.189L71.5375 126.934Z" fill="#3C354C"/>
<path d="M63.1663 31.8156C63.511 32.6025 64.3391 33.041 65.0923 33.4569C69.4578 35.8626 73.1113 39.3512 76.7086 42.7986C75.8107 39.7526 76.0028 36.4889 77.2519 33.5693C77.6791 32.5763 78.2449 31.5046 77.9376 30.4666C77.7091 29.7172 77.0608 29.1476 76.4388 28.6605C74.9699 27.5245 73.4346 26.4772 71.841 25.5241C70.7168 24.8571 68.4386 23.0847 67.1608 23.2758C67.0933 25.0033 67.0596 26.5471 66.3026 28.1471C66.1153 28.5443 63.2974 32.1154 63.1663 31.8156Z" fill="#A0616A"/>
<path d="M78.376 35.6378C85.1101 35.6378 90.5693 30.1786 90.5693 23.4444C90.5693 16.7102 85.1101 11.2511 78.376 11.2511C71.6418 11.2511 66.1826 16.7102 66.1826 23.4444C66.1826 30.1786 71.6418 35.6378 78.376 35.6378Z" fill="#A0616A"/>
<path d="M78.9719 52.294C78.9719 52.294 81.0516 41.8843 75.1048 38.317C69.158 34.7497 62.3194 30.5865 62.3194 30.5865C62.3194 30.5865 60.236 30.2868 59.3442 34.7497C59.3442 34.7497 42.3957 38.021 40.6083 54.0776C38.8209 70.1343 41.7999 93.6291 41.7999 93.6291C41.7999 93.6291 39.1244 114.149 35.8531 125.15C35.8531 125.15 33.1739 127.53 45.0712 123.963C56.9685 120.395 77.7803 134.08 77.7803 134.08C77.7803 134.08 79.8637 131.997 79.8637 130.509C79.8637 129.021 82.2432 120.392 82.2432 120.392C82.2432 120.392 84.3229 83.8153 85.2147 79.6521C86.1065 75.489 81.6474 52.8898 78.9719 52.294Z" fill="#3F3D56"/>
<path d="M60.5357 72.8136C60.5357 72.8136 76.8884 63.2957 73.6171 51.1024C70.3458 38.9091 63.2112 35.0457 63.2112 35.0457C63.2112 35.0457 51.6137 31.1786 41.7998 43.6642L42.3956 49.315C42.3956 49.315 53.1013 27.6076 64.6988 41.2848C76.2964 54.962 60.5357 72.8136 60.5357 72.8136Z" fill="#5280E1"/>
<path d="M42.9876 44.2638V93.0259L39.9486 109.66L38.5284 117.413H28.1337L13.5647 112.058V76.0849C13.5647 76.0849 25.7543 51.9943 29.6214 47.5351C33.4885 43.076 42.9876 44.2638 42.9876 44.2638Z" fill="#5280E1"/>
<path opacity="0.1" d="M39.945 109.663L38.5285 117.416H28.1189L13.5498 112.065L39.945 109.663Z" fill="black"/>
<path d="M39.4204 99.2762L64.9949 68.0509L42.3919 100.468L40.0125 101.06L39.4204 99.2762Z" fill="#5280E1"/>
<path d="M75.5019 24.7035C76.1951 24.2351 77.0645 24.1489 77.8963 24.0664C78.7282 23.984 79.5976 23.8716 80.2608 23.362C81.4112 22.4776 81.4974 20.7689 82.3405 19.5886C83.5583 17.8761 85.9903 17.67 88.0924 17.7524C89.3777 17.8049 90.7604 17.8836 91.8396 17.1904C92.9188 16.4971 93.4509 15.1294 93.8256 13.8666C94.2715 12.3677 94.5563 10.5391 93.4509 9.42996C92.7015 8.65804 91.4874 8.5044 90.6405 7.82616C89.7936 7.14792 89.4002 5.98255 88.9243 4.96706C88.381 3.72655 87.5218 2.65026 86.4324 1.84566C84.8361 0.721502 82.7977 0.489177 80.8529 0.507913C78.9081 0.526649 76.9558 0.785204 75.026 0.545384C73.4447 0.350531 71.8671 -0.174073 70.2933 0.0582525C68.2848 0.35428 66.6248 1.87189 65.6318 3.64431C64.6388 5.41672 64.2191 7.4402 63.8069 9.4262L62.6828 14.8334C62.338 16.5121 61.9896 18.2321 62.2556 19.9221C62.8102 23.4294 65.9129 26.2173 66.1264 29.7584C66.3304 28.7801 66.7741 27.8678 67.4177 27.1032C68.0612 26.3387 68.8845 25.7459 69.8137 25.378C70.0462 25.2644 70.3098 25.2314 70.5631 25.2843C70.8704 25.3855 71.0502 25.6927 71.2451 25.9513C71.7547 26.6295 73.3548 27.6562 74.2428 27.1766C75.0897 26.7457 74.4827 25.3967 75.5019 24.7035Z" fill="#3F3D56"/>
<path d="M153.316 176.003C153.316 176.003 145.286 176.299 144.098 185.518C142.91 194.736 144.098 237.558 144.098 237.558C144.098 237.558 153.316 244.397 164.618 243.505C175.919 242.613 194.055 239.342 194.055 239.342V189.13C194.055 181.635 187.805 175.524 180.318 175.955C180.142 175.955 179.944 175.977 179.782 175.996L153.316 176.003Z" fill="#3C354C"/>
<path d="M164.913 250.344C167.869 250.344 170.264 247.948 170.264 244.993C170.264 242.038 167.869 239.642 164.913 239.642C161.958 239.642 159.562 242.038 159.562 244.993C159.562 247.948 161.958 250.344 164.913 250.344Z" fill="#3F3D56"/>
<path d="M194.055 247.964C197.011 247.964 199.406 245.569 199.406 242.613C199.406 239.658 197.011 237.262 194.055 237.262C191.1 237.262 188.704 239.658 188.704 242.613C188.704 245.569 191.1 247.964 194.055 247.964Z" fill="#3F3D56"/>
<path d="M44.7751 80.248C44.7751 80.248 42.6917 93.3294 51.3139 92.1416C51.3139 92.1416 55.7768 91.5458 56.3726 92.1416C56.9684 92.7374 78.9719 88.8703 81.9472 85.599C81.9472 85.599 85.5145 84.4111 87.2981 86.1948C89.0818 87.9784 106.926 89.7621 101.579 84.4074C96.2314 79.0526 87.9014 77.8648 87.9014 77.8648L76.5999 78.4568C76.5999 78.4568 70.6532 80.2442 67.0858 78.4568C63.5185 76.6694 53.3974 77.2877 53.3974 77.2877L44.7751 80.248Z" fill="#A0616A"/>
<path d="M56.9647 38.9128C56.9647 38.9128 43.5835 40.4117 43.5835 59.7284V84.4073C43.5835 84.4073 51.0179 81.136 52.5055 81.4321C53.9932 81.7281 59.9399 77.565 59.9399 77.565C59.9399 77.565 66.7786 61.512 66.1828 57.0529C65.5869 52.5937 65.8867 39.5048 56.9647 38.9128Z" fill="#3F3D56"/>
<path d="M118.224 86.7868L104.843 96.3047L113.169 97.1965L124.766 87.3826L118.224 86.7868Z" fill="#3F3D56"/>
<path d="M128.633 101.064C128.633 101.064 131.905 111.181 127.446 114.149C122.986 117.116 115.548 103.739 115.548 103.739C115.548 103.739 107.518 94.225 112.873 92.1415C118.227 90.0581 120.412 99.13 120.412 99.13L127.434 105.227L128.633 101.064Z" fill="#FBBEBE"/>
<path d="M108.264 58.0909C114.832 58.0909 120.157 54.6953 120.157 50.5066C120.157 46.3179 114.832 42.9223 108.264 42.9223C101.695 42.9223 96.3701 46.3179 96.3701 50.5066C96.3701 54.6953 101.695 58.0909 108.264 58.0909Z" fill="#3F3D56"/>
<path d="M110.343 40.8426C115.105 40.8426 118.965 36.9822 118.965 32.2203C118.965 27.4583 115.105 23.598 110.343 23.598C105.581 23.598 101.721 27.4583 101.721 32.2203C101.721 36.9822 105.581 40.8426 110.343 40.8426Z" fill="#3F3D56"/>
<path d="M78.3761 21.8107C84.6985 21.8107 89.8238 19.1482 89.8238 15.8639C89.8238 12.5796 84.6985 9.91711 78.3761 9.91711C72.0538 9.91711 66.9285 12.5796 66.9285 15.8639C66.9285 19.1482 72.0538 21.8107 78.3761 21.8107Z" fill="#3F3D56"/>
<path d="M67.6705 26.8656C69.8869 26.8656 71.6837 22.4047 71.6837 16.9019C71.6837 11.399 69.8869 6.93811 67.6705 6.93811C65.454 6.93811 63.6572 11.399 63.6572 16.9019C63.6572 22.4047 65.454 26.8656 67.6705 26.8656Z" fill="#3F3D56"/>
<path d="M7.93271 252.109C9.05687 250.044 7.78283 247.515 6.32892 245.671C4.87501 243.827 3.09885 241.924 3.13633 239.567C3.19253 236.194 6.77109 234.205 9.63019 232.417C11.7522 231.091 13.7095 229.517 15.4608 227.73C16.1958 227.043 16.8023 226.231 17.252 225.331C17.844 224.012 17.829 222.513 17.7915 221.067C17.6666 216.256 17.4281 211.449 17.0758 206.648" stroke="#3F3D56" stroke-width="4" stroke-miterlimit="10"/>
<path d="M22.5131 206.382C22.4733 205.501 22.2121 204.644 21.7536 203.891C21.2951 203.138 20.6542 202.513 19.8901 202.073L18.7135 204.403L18.7509 201.585C17.6844 201.272 16.5459 201.306 15.4997 201.681C14.4535 202.057 13.5536 202.755 12.9299 203.675C12.3062 204.596 11.9909 205.69 12.0295 206.801C12.0681 207.912 12.4586 208.982 13.1447 209.857C13.8307 210.731 14.7769 211.365 15.8466 211.667C16.9164 211.97 18.0545 211.924 19.0967 211.538C20.139 211.151 21.0315 210.443 21.6455 209.517C22.2595 208.59 22.5633 207.492 22.5131 206.382Z" fill="#57B894"/>
<path d="M13.145 241.98C12.5933 243.049 11.691 243.896 10.5891 244.379C9.48716 244.862 8.25273 244.952 7.09263 244.633C5.93253 244.314 4.91727 243.606 4.21701 242.628C3.51674 241.65 3.17402 240.461 3.24629 239.26C3.31856 238.059 3.80142 236.919 4.61396 236.032C5.42649 235.144 6.51931 234.563 7.70927 234.386C8.89923 234.209 10.114 234.446 11.15 235.057C12.1861 235.669 12.9803 236.618 13.3998 237.746L10.1135 240.418L13.7295 239.578C13.7304 240.414 13.5299 241.238 13.145 241.98Z" fill="#57B894"/>
<path d="M10.522 231.769C9.83169 231.803 9.14151 231.7 8.49113 231.466C7.84074 231.232 7.24298 230.872 6.73217 230.407C6.22135 229.941 5.80756 229.379 5.51457 228.753C5.22158 228.127 5.05516 227.45 5.02488 226.759C4.98339 225.936 5.13884 225.115 5.4783 224.365C5.79317 223.662 6.25832 223.036 6.841 222.533C7.42368 222.029 8.10971 221.659 8.85076 221.449L8.82453 223.619L10.0124 221.262C10.7027 221.228 11.3929 221.331 12.0433 221.565C12.6936 221.799 13.2914 222.159 13.8022 222.624C14.313 223.09 14.7268 223.652 15.0198 224.278C15.3128 224.904 15.4792 225.581 15.5095 226.272C15.5403 226.879 15.4642 227.486 15.2847 228.067C14.9682 229.099 14.341 230.008 13.4887 230.671C12.6363 231.334 11.6003 231.717 10.522 231.769Z" fill="#57B894"/>
<path d="M23.3037 223.274C22.4965 223.304 21.6932 223.147 20.9567 222.815C20.2201 222.483 19.5702 221.986 19.0574 221.362C18.5446 220.737 18.1829 220.003 18.0005 219.216C17.8181 218.429 17.8199 217.611 18.0057 216.825C18.1915 216.039 18.5564 215.306 19.0719 214.684C19.5874 214.062 20.2395 213.568 20.9775 213.239C21.7155 212.91 22.5194 212.757 23.3265 212.79C24.1336 212.823 24.9222 213.042 25.6307 213.43L24.7014 215.978L26.6125 214.142C27.3851 214.841 27.932 215.755 28.1836 216.766C28.4352 217.777 28.38 218.84 28.025 219.819C27.6701 220.799 27.0315 221.651 26.1907 222.266C25.3498 222.881 24.3448 223.232 23.3037 223.274Z" fill="#57B894"/>
<path opacity="0.1" d="M21.805 207.783C20.5946 207.918 19.4105 208.297 18.1927 208.372C16.9748 208.447 15.6371 208.154 14.8689 207.206C14.453 206.697 14.2431 206.052 13.8947 205.498C13.5623 204.98 13.1081 204.551 12.5719 204.25C12.2518 204.913 12.075 205.637 12.0531 206.373C12.0312 207.109 12.1646 207.842 12.4446 208.523C12.7246 209.205 13.145 209.82 13.6784 210.328C14.2118 210.836 14.8463 211.226 15.5404 211.473C16.2346 211.719 16.9729 211.817 17.7073 211.759C18.4417 211.702 19.1557 211.49 19.8029 211.138C20.4501 210.786 21.0159 210.302 21.4635 209.717C21.9111 209.132 22.2304 208.459 22.4008 207.742C22.2022 207.75 22.0036 207.765 21.805 207.783Z" fill="black"/>
<path opacity="0.1" d="M23.3038 223.274C22.3989 223.314 21.4992 223.119 20.6914 222.71C19.8836 222.3 19.195 221.689 18.6922 220.936C18.1894 220.182 17.8892 219.312 17.8207 218.409C17.7523 217.506 17.9178 216.6 18.3013 215.78C18.7207 216.061 19.081 216.421 19.3617 216.84C19.7364 217.406 19.9613 218.058 20.4034 218.579C21.2203 219.542 22.6218 219.857 23.8883 219.797C25.1549 219.737 26.3839 219.381 27.6355 219.265C27.8116 219.265 27.9915 219.235 28.1676 219.231C27.9071 220.342 27.2913 221.338 26.4135 222.068C25.5358 222.798 24.444 223.221 23.3038 223.274Z" fill="black"/>
<path opacity="0.1" d="M10.522 231.769C9.83169 231.803 9.14151 231.7 8.49113 231.466C7.84074 231.232 7.24298 230.872 6.73217 230.407C6.22135 229.941 5.80756 229.379 5.51457 228.753C5.22158 228.127 5.05516 227.45 5.02488 226.759C4.98339 225.936 5.13884 225.115 5.4783 224.365C5.91545 224.649 6.29653 225.011 6.60245 225.433C7.0109 226.01 7.2657 226.673 7.72661 227.205C8.61469 228.194 10.1061 228.543 11.4513 228.509C12.7965 228.475 14.0069 228.161 15.2997 228.063C14.983 229.098 14.3538 230.01 13.4985 230.674C12.6431 231.337 11.6034 231.72 10.522 231.769Z" fill="black"/>
<path opacity="0.1" d="M13.1451 241.98C12.8634 242.609 12.4604 243.177 11.9593 243.651C11.4582 244.125 10.8687 244.495 10.2244 244.741C9.58017 244.987 8.89381 245.103 8.20453 245.084C7.51525 245.064 6.83654 244.909 6.20716 244.627C5.57778 244.346 5.01006 243.943 4.5364 243.442C4.06274 242.941 3.69242 242.351 3.44658 241.707C3.20075 241.063 3.08422 240.376 3.10365 239.687C3.12307 238.998 3.27807 238.319 3.55978 237.69C3.99223 237.974 4.381 238.32 4.71391 238.716C5.21229 239.327 5.54204 240.017 6.11911 240.59C7.19455 241.647 8.92949 242.089 10.4771 242.122C11.3684 242.126 12.2592 242.079 13.1451 241.98Z" fill="black"/>
<path d="M0 249.733C0 249.733 4.15187 249.606 5.40343 248.714C6.65499 247.822 11.7736 246.758 12.0996 248.189C12.4256 249.621 18.335 255.309 13.651 255.331C8.967 255.354 2.76167 254.601 1.51385 253.832C0.266042 253.064 0 249.733 0 249.733Z" fill="#656380"/>
<path opacity="0.2" d="M13.7334 254.833C9.04569 254.87 2.8441 254.102 1.59629 253.334C0.644508 252.757 0.266048 250.677 0.138644 249.718H0C0 249.718 0.262303 253.064 1.49887 253.84C2.73544 254.616 8.94826 255.369 13.636 255.339C14.9887 255.339 15.4534 254.848 15.4309 254.132C15.2548 254.556 14.7414 254.825 13.7334 254.833Z" fill="black"/>
</svg>
